<svg width="74" height="69" viewBox="0 0 74 69" fill="none" xmlns="http://www.w3.org/2000/svg">
<mask id="path-1-inside-1_83_218" fill="white">
<path d="M0 30C0 13.4315 13.4315 0 30 0H44C60.5685 0 74 13.4315 74 30V39.0001C74 55.5686 60.5685 69.0001 44 69.0001H30C13.4315 69.0001 0 55.5687 0 39.0001V30Z"/>
</mask>
<path d="M3 30C3 15.0883 15.0883 3 30 3V-3C11.7746 -3 -3 11.7746 -3 30H3ZM30 3H44V-3H30V3ZM44 3C58.9117 3 71 15.0883 71 30H77C77 11.7746 62.2254 -3 44 -3V3ZM71 30V39.0001H77V30H71ZM71 39.0001C71 53.9118 58.9117 66.0001 44 66.0001V72.0001C62.2254 72.0001 77 57.2255 77 39.0001H71ZM44 66.0001H30V72.0001H44V66.0001ZM30 66.0001C15.0883 66.0001 3 53.9118 3 39.0001H-3C-3 57.2255 11.7746 72.0001 30 72.0001V66.0001ZM3 39.0001V30H-3V39.0001H3Z" fill="black" mask="url(#path-1-inside-1_83_218)"/>
<path d="M46 58.3137V51.4974C46.0891 50.365 45.9361 49.2264 45.5511 48.1577C45.1662 47.0889 44.5582 46.1142 43.7675 45.2987C51.225 44.4674 59.0625 41.6412 59.0625 28.6736C59.0618 25.3577 57.7864 22.169 55.5 19.7674C56.5826 16.8663 56.5061 13.6597 55.2863 10.8136C55.2863 10.8136 52.4838 9.98238 46 14.3286C40.5565 12.8533 34.8185 12.8533 29.375 14.3286C22.8913 9.98238 20.0888 10.8136 20.0888 10.8136C18.8689 13.6597 18.7923 16.8663 19.875 19.7674C17.5715 22.1868 16.2947 25.4044 16.3125 28.7449C16.3125 41.6174 24.15 44.4437 31.6075 45.3699C30.8261 46.1774 30.2235 47.1402 29.8388 48.1959C29.4542 49.2516 29.2962 50.3766 29.375 51.4974V58.3137" stroke="black" stroke-width="3" stroke-linecap="round" stroke-linejoin="round"/>
<path d="M29.375 53.5635C22.25 55.8748 16.3125 53.5635 12.75 46.4385" stroke="black" stroke-width="3" stroke-linecap="round" stroke-linejoin="round"/>
</svg>
