<svg width="351" height="259" viewBox="0 0 351 259" fill="none" xmlns="http://www.w3.org/2000/svg">
<g clip-path="url(#clip0_27_904)">
<path d="M0.979611 227.113H8.62879C9.17432 227.113 9.6084 227.55 9.6084 228.099V257.436C9.6084 257.985 9.17432 258.421 8.62879 258.421H0.979611C0.434079 258.421 0 257.985 0 257.436V228.099C0 227.55 0.434079 227.113 0.979611 227.113ZM17.6213 227.113H25.0886C25.4171 227.113 25.7397 227.261 25.9216 227.55L35.53 241.782C36.0755 242.584 37.3425 242.218 37.3425 241.233V228.099C37.3425 227.55 37.7766 227.113 38.3222 227.113H45.3906C45.9361 227.113 46.3702 227.55 46.3702 228.099V257.436C46.3702 257.985 45.9361 258.421 45.3906 258.421H37.847C37.5185 258.421 37.1959 258.274 37.0141 257.985L27.476 243.901C26.9305 243.098 25.6635 243.464 25.6635 244.45V257.4C25.6635 257.949 25.2294 258.386 24.6839 258.386H17.6154C17.0699 258.386 16.6358 257.949 16.6358 257.4V228.105C16.6358 227.556 17.0699 227.119 17.6154 227.119L17.6213 227.113ZM53.8434 227.113H75.6354C76.1809 227.113 76.615 227.55 76.615 228.099V232.845C76.615 233.394 76.1809 233.831 75.6354 233.831H63.487C62.9415 233.831 62.5074 234.268 62.5074 234.816V238.281C62.5074 238.83 62.9415 239.267 63.487 239.267H73.5647C74.1102 239.267 74.5443 239.704 74.5443 240.253V244.597C74.5443 245.146 74.1102 245.583 73.5647 245.583H63.487C62.9415 245.583 62.5074 246.02 62.5074 246.569V257.371C62.5074 257.92 62.0733 258.357 61.5278 258.357H53.8434C53.2979 258.357 52.8638 257.92 52.8638 257.371V228.111C52.8638 227.562 53.2979 227.125 53.8434 227.125V227.113ZM80.6038 242.797C80.6038 237.691 82.0175 233.713 84.8449 230.832C87.6723 227.952 91.6259 226.564 96.6647 226.564C101.704 226.564 105.839 227.952 108.631 230.761C111.423 233.571 112.837 237.473 112.837 242.549C112.837 246.197 112.221 249.225 110.989 251.563C109.758 253.9 107.98 255.724 105.698 257.034C103.416 258.351 100.513 259.006 97.0343 259.006C93.5558 259.006 90.617 258.457 88.2941 257.33C85.9712 256.202 84.1234 254.414 82.7097 252.005C81.296 249.597 80.5686 246.533 80.5686 242.85L80.6038 242.815V242.797ZM90.2122 242.838C90.2122 246.014 90.7929 248.275 91.9544 249.662C93.1159 251.049 94.7114 251.74 96.741 251.74C98.7706 251.74 100.401 251.049 101.528 249.697C102.654 248.346 103.235 245.902 103.235 242.401C103.235 239.444 102.654 237.296 101.457 235.944C100.261 234.592 98.665 233.902 96.6354 233.902C94.6058 233.902 93.1569 234.592 91.9603 235.979C90.7636 237.366 90.1829 239.663 90.1829 242.838H90.2181H90.2122ZM118.204 257.43V228.093C118.204 227.544 118.639 227.108 119.184 227.108H134.23C137.204 227.108 139.486 227.361 141.046 227.875C142.607 228.388 143.874 229.333 144.853 230.72C145.833 232.107 146.302 233.783 146.302 235.79C146.302 237.544 145.939 239.037 145.217 240.277C144.49 241.551 143.475 242.573 142.173 243.34C141.34 243.854 140.213 244.255 138.8 244.58C139.961 244.981 140.794 245.347 141.305 245.748C141.668 246.002 142.173 246.551 142.83 247.389C143.516 248.227 143.956 248.883 144.173 249.325L148.091 256.952C148.42 257.607 147.945 258.41 147.223 258.41H138.559C138.196 258.41 137.873 258.191 137.691 257.896L132.834 248.847C132.183 247.608 131.602 246.805 131.092 246.439C130.406 245.967 129.608 245.707 128.734 245.707H127.901V257.418C127.901 257.967 127.467 258.404 126.921 258.404H119.237C118.691 258.404 118.257 257.967 118.257 257.418H118.222L118.204 257.43ZM127.883 239.769H131.942C132.377 239.769 133.251 239.621 134.482 239.332C135.134 239.184 135.644 238.895 136.043 238.346C136.442 237.797 136.659 237.213 136.659 236.522C136.659 235.501 136.33 234.734 135.714 234.185C135.098 233.636 133.867 233.382 132.124 233.382H127.883V239.769ZM170.306 253.268H160.879C160.445 253.268 160.046 253.558 159.935 254L158.85 257.719C158.738 258.156 158.339 258.451 157.905 258.451H150.256C149.57 258.451 149.094 257.76 149.312 257.099L160.228 227.727C160.375 227.326 160.738 227.072 161.172 227.072H170.312C170.71 227.072 171.109 227.326 171.256 227.727L182.208 257.064C182.46 257.719 181.955 258.416 181.263 258.416H173.362C172.928 258.416 172.529 258.126 172.417 257.725L171.291 253.965C171.145 253.528 170.781 253.274 170.347 253.274H170.312L170.306 253.268ZM167.695 246.486C168.346 246.486 168.857 245.831 168.64 245.211L165.595 235.253L162.586 245.211C162.404 245.866 162.874 246.486 163.531 246.486H167.701H167.695ZM185.716 228.093C185.716 227.544 186.15 227.108 186.695 227.108H201.706C205.185 227.108 207.795 227.946 209.537 229.628C211.279 231.31 212.147 233.677 212.147 236.741C212.147 239.804 211.203 242.36 209.32 244.149C207.437 245.937 204.533 246.811 200.656 246.811H196.38C195.834 246.811 195.4 247.248 195.4 247.797V257.43C195.4 257.979 194.966 258.416 194.421 258.416H186.736C186.191 258.416 185.757 257.979 185.757 257.43V228.093H185.721H185.716ZM195.394 240.465H197.752C199.6 240.465 200.908 240.135 201.671 239.48C202.433 238.824 202.797 237.986 202.797 237C202.797 236.015 202.469 235.177 201.818 234.48C201.166 233.783 199.935 233.459 198.157 233.459H195.4V240.465H195.394ZM218.131 227.113H241.917C242.463 227.113 242.897 227.55 242.897 228.099V232.804C242.897 233.353 242.463 233.789 241.917 233.789H226.759V238.789H240.756C241.301 238.789 241.735 239.226 241.735 239.775V244.155C241.735 244.704 241.301 245.14 240.756 245.14H227.774C227.229 245.14 226.795 245.577 226.795 246.126V250.288C226.795 250.836 227.229 251.273 227.774 251.273H242.386C242.932 251.273 243.366 251.71 243.366 252.259V257.365C243.366 257.914 242.932 258.351 242.386 258.351H218.131C217.585 258.351 217.151 257.914 217.151 257.365V228.105C217.151 227.556 217.585 227.119 218.131 227.119V227.113ZM249.637 227.113H257.104C257.432 227.113 257.755 227.261 257.937 227.55L267.545 241.782C268.091 242.584 269.358 242.218 269.358 241.233V228.099C269.358 227.55 269.792 227.113 270.337 227.113H277.406C277.952 227.113 278.386 227.55 278.386 228.099V257.436C278.386 257.985 277.952 258.421 277.406 258.421H269.862C269.534 258.421 269.211 258.274 269.029 257.985L259.491 243.901C258.946 243.098 257.679 243.464 257.679 244.45V257.4C257.679 257.949 257.245 258.386 256.699 258.386H249.631C249.085 258.386 248.651 257.949 248.651 257.4V228.105C248.651 227.556 249.085 227.119 249.631 227.119L249.637 227.113ZM285.9 227.113H293.367C293.696 227.113 294.018 227.261 294.2 227.55L303.809 241.782C304.354 242.584 305.621 242.218 305.621 241.233V228.099C305.621 227.55 306.055 227.113 306.601 227.113H313.669C314.215 227.113 314.649 227.55 314.649 228.099V257.436C314.649 257.985 314.215 258.421 313.669 258.421H306.126C305.797 258.421 305.474 258.274 305.293 257.985L295.755 243.901C295.209 243.098 293.942 243.464 293.942 244.45V257.4C293.942 257.949 293.508 258.386 292.962 258.386H285.894C285.348 258.386 284.914 257.949 284.914 257.4V228.105C284.914 227.556 285.348 227.119 285.894 227.119L285.9 227.113ZM319.799 227.113H328.064C328.428 227.113 328.75 227.296 328.932 227.586L334.083 236.233C334.482 236.888 335.391 236.888 335.79 236.233L340.94 227.586C341.122 227.296 341.45 227.113 341.808 227.113H350.003C350.801 227.113 351.27 227.987 350.836 228.684L339.919 245.105C339.919 245.105 339.737 245.471 339.737 245.654V257.477C339.737 258.026 339.303 258.463 338.758 258.463H331.109C330.563 258.463 330.129 258.026 330.129 257.477V245.654C330.129 245.471 330.059 245.253 329.947 245.105L319.031 228.684C318.597 228.028 319.031 227.113 319.864 227.113H319.793H319.799Z" fill="url(#paint0_linear_27_904)"/>
<path d="M100.847 141.807C87.7016 154.64 104.947 168.375 78.4921 187.028C78.4921 187.028 94.0485 192.282 108.15 174.426C112.984 168.263 118.597 165.719 118.597 165.719C120.51 166.853 119.049 173.121 112.251 178.268C112.251 178.268 122.868 178.552 129.496 171.882C136.125 165.212 140.618 155.602 140.618 155.602C145.17 163.63 133.767 173.8 133.767 173.8C133.767 173.8 144.496 170.973 157.248 158.14C167.132 148.194 174.212 123.379 159.999 109.136C145.786 94.8924 120.457 97.4365 108.039 109.986C102.589 115.469 97.0284 124.005 96.301 131.011C96.301 131.011 106.748 119.648 110.456 124.453C110.456 124.453 92.7639 135.19 89.8954 145.426C89.9541 145.426 98.7706 140.113 100.847 141.807Z" fill="url(#paint1_linear_27_904)"/>
<path d="M91.0745 151.588C77.313 157.125 86.1882 168.771 80.2343 174.762C80.2343 174.762 88.1533 170.412 88.0418 161.877C87.9304 154.923 91.0745 151.588 91.0745 151.588Z" fill="url(#paint2_linear_27_904)"/>
<path d="M94.2773 192.004C97.8144 191.609 103.768 181.267 111.857 182.961C111.857 182.961 104.613 193.586 94.2773 192.004Z" fill="url(#paint3_linear_27_904)"/>
<path opacity="0.5" d="M137.808 171.256C142.132 169.615 149.493 166.002 157.242 158.14C165.947 149.38 173.198 124.506 158.926 110.21C144.994 96.1909 120.563 99.0183 108.825 110.83C104.613 115.068 100.12 121.455 98.319 127.334C100.847 125.073 104.607 122.246 107.757 121.909C109.388 121.738 110.678 122.305 111.576 123.438L112.473 124.565L110.901 125.527C110.731 125.64 97.0285 134.063 92.365 142.651C95.5678 141.01 99.9497 139.204 101.745 140.674L102.754 141.524L101.575 142.71C96.6882 147.515 96.4067 152.432 96.1838 158.14C95.7907 166.339 95.3391 175.547 81.5248 186.231C86.241 186.851 96.9698 186.568 107.141 173.741C112.198 167.295 118.04 164.586 118.263 164.468L118.938 164.184L119.442 164.468C120.398 165.034 120.844 166.274 120.68 167.915C120.457 170.176 118.996 173.399 115.846 176.675C119.331 176.22 124.78 174.921 128.652 171.02C134.999 164.633 139.381 155.36 139.439 155.248L140.677 152.591L141.856 154.681C144.889 160.106 141.522 166.723 137.814 171.244L137.808 171.256Z" fill="url(#paint4_linear_27_904)"/>
<path d="M80.2343 174.762C84.1116 171.598 88.1005 165.383 88.0418 161.877C87.9832 158.654 88.8865 154.132 91.0745 151.588C81.4133 155.714 82.7625 162.213 83.9943 165.436C84.5575 166.847 83.8242 171.032 80.2284 174.762H80.2343Z" fill="url(#paint5_radial_27_904)"/>
<path d="M87.7016 184.313C106.015 178.263 110.901 157.349 122.639 153.737C134.436 150.118 131.456 161.422 126.91 166.569C126.91 166.569 142.466 150.856 142.525 138.59C142.636 126.324 158.984 145.485 153.928 155.431C153.928 155.431 178.923 130.279 158.926 110.21C138.929 90.1466 112.362 110.151 112.362 110.151C112.362 110.151 127.525 109.531 126.182 120.605C126.182 120.605 114.497 125.073 105.288 132.475C105.288 132.475 109.781 132.983 112.872 137.616C112.872 137.616 99.1108 147.167 99.674 155.366C100.46 165.938 93.6086 182.383 87.7075 184.307L87.7016 184.313Z" fill="url(#paint6_linear_27_904)"/>
<path d="M100.507 168.429C109.048 166.28 116.574 146.158 128.593 147.291C135.222 147.911 133.702 153.678 133.702 153.678C133.702 153.678 138.307 147.067 139.375 138.189C140.442 129.317 156.902 132.31 156.169 149.044C156.169 149.044 174.253 125.362 152.291 110.269C128.083 93.6527 110.332 114.507 110.332 114.507C110.332 114.507 126.904 108.97 129.485 122.192C129.485 122.192 115.782 126.035 110.725 131.123C110.725 131.123 116.568 131.973 117.97 138.248C117.97 138.248 104.49 148.194 104.883 152.155C105.839 161.593 100.501 168.434 100.501 168.434L100.507 168.429Z" fill="url(#paint7_linear_27_904)"/>
<path opacity="0.5" d="M100.847 141.807C87.7016 154.64 104.947 168.375 78.4921 187.028C78.4921 187.028 94.0485 192.282 108.15 174.426C112.984 168.263 118.597 165.719 118.597 165.719C120.51 166.853 119.049 173.121 112.251 178.268C112.251 178.268 122.868 178.552 129.496 171.882C136.125 165.212 140.618 155.602 140.618 155.602C145.17 163.63 133.767 173.8 133.767 173.8C133.767 173.8 144.496 170.973 157.248 158.14C167.132 148.194 174.212 123.379 159.999 109.136C145.786 94.8924 120.457 97.4365 108.039 109.986C102.589 115.469 97.0284 124.005 96.301 131.011C96.301 131.011 106.748 119.648 110.456 124.453C110.456 124.453 92.7639 135.19 89.8954 145.426C89.9541 145.426 98.7706 140.113 100.847 141.807Z" fill="url(#paint8_radial_27_904)"/>
<path opacity="0.5" d="M100.847 141.807C87.7016 154.64 104.947 168.375 78.4921 187.028C78.4921 187.028 94.0485 192.282 108.15 174.426C112.984 168.263 118.597 165.719 118.597 165.719C120.51 166.853 119.049 173.121 112.251 178.268C112.251 178.268 122.868 178.552 129.496 171.882C136.125 165.212 140.618 155.602 140.618 155.602C145.17 163.63 133.767 173.8 133.767 173.8C133.767 173.8 144.496 170.973 157.248 158.14C167.132 148.194 174.212 123.379 159.999 109.136C145.786 94.8924 120.457 97.4365 108.039 109.986C102.589 115.469 97.0284 124.005 96.301 131.011C96.301 131.011 106.748 119.648 110.456 124.453C110.456 124.453 92.7639 135.19 89.8954 145.426C89.9541 145.426 98.7706 140.113 100.847 141.807Z" fill="url(#paint9_radial_27_904)"/>
<path d="M150.614 162.384C163.419 148.649 170.669 124.117 157.295 110.664C143.927 97.2121 119.325 108.516 108.426 118.633C108.426 118.633 117.131 114.962 123.982 119.371C130.834 123.78 111.23 131.413 107.13 143.507C107.13 143.507 124.598 132.935 130.101 137.404C135.603 141.866 130.042 155.944 124.763 161.257C124.763 161.257 137.286 154.811 144.026 146.506C154.303 133.785 150.596 162.39 150.596 162.39L150.614 162.384Z" fill="url(#paint10_radial_27_904)"/>
<path opacity="0.5" d="M100.847 141.807C87.7016 154.64 104.947 168.375 78.4921 187.028C78.4921 187.028 94.0485 192.282 108.15 174.426C112.984 168.263 118.597 165.719 118.597 165.719C120.51 166.853 119.049 173.121 112.251 178.268C112.251 178.268 122.868 178.552 129.496 171.882C136.125 165.212 140.618 155.602 140.618 155.602C145.17 163.63 133.767 173.8 133.767 173.8C133.767 173.8 144.496 170.973 157.248 158.14C167.132 148.194 174.212 123.379 159.999 109.136C145.786 94.8924 120.457 97.4365 108.039 109.986C102.589 115.469 97.0284 124.005 96.301 131.011C96.301 131.011 106.748 119.648 110.456 124.453C110.456 124.453 92.7639 135.19 89.8954 145.426C89.9541 145.426 98.7706 140.113 100.847 141.807Z" fill="url(#paint11_radial_27_904)"/>
<path opacity="0.5" d="M91.0745 151.588C77.313 157.125 86.1882 168.771 80.2343 174.762C80.2343 174.762 88.1533 170.412 88.0418 161.877C87.9304 154.923 91.0745 151.588 91.0745 151.588Z" fill="url(#paint12_radial_27_904)"/>
<path d="M94.2773 191.998C97.8144 191.603 102.982 184.313 111.857 182.955C111.857 182.955 104.613 193.58 94.2773 191.998Z" fill="url(#paint13_radial_27_904)"/>
<path opacity="0.5" d="M94.2773 192.004C97.8144 191.609 103.768 181.267 111.857 182.961C111.857 182.961 104.613 193.586 94.2773 192.004Z" fill="url(#paint14_radial_27_904)"/>
<path opacity="0.5" d="M100.847 141.807C87.7016 154.64 104.947 168.375 78.4921 187.028C78.4921 187.028 94.0485 192.282 108.15 174.426C112.984 168.263 118.597 165.719 118.597 165.719C120.51 166.853 119.049 173.121 112.251 178.268C112.251 178.268 122.868 178.552 129.496 171.882C136.125 165.212 140.618 155.602 140.618 155.602C145.17 163.63 133.767 173.8 133.767 173.8C133.767 173.8 144.496 170.973 157.248 158.14C167.132 148.194 174.212 123.379 159.999 109.136C145.786 94.8924 120.457 97.4365 108.039 109.986C102.589 115.469 97.0284 124.005 96.301 131.011C96.301 131.011 106.748 119.648 110.456 124.453C110.456 124.453 92.7639 135.19 89.8954 145.426C89.9541 145.426 98.7706 140.113 100.847 141.807Z" fill="url(#paint15_radial_27_904)"/>
<path opacity="0.25" d="M100.847 141.807C87.7016 154.64 104.947 168.375 78.4921 187.028C78.4921 187.028 94.0485 192.282 108.15 174.426C112.984 168.263 118.597 165.719 118.597 165.719C120.51 166.853 119.049 173.121 112.251 178.268C112.251 178.268 122.868 178.552 129.496 171.882C136.125 165.212 140.618 155.602 140.618 155.602C145.17 163.63 133.767 173.8 133.767 173.8C133.767 173.8 144.496 170.973 157.248 158.14C167.132 148.194 174.212 123.379 159.999 109.136C145.786 94.8924 120.457 97.4365 108.039 109.986C102.589 115.469 97.0284 124.005 96.301 131.011C96.301 131.011 106.748 119.648 110.456 124.453C110.456 124.453 92.7639 135.19 89.8954 145.426C89.9541 145.426 98.7706 140.113 100.847 141.807Z" fill="url(#paint16_radial_27_904)"/>
<path opacity="0.75" d="M100.847 141.807C87.7016 154.64 104.947 168.375 78.4921 187.028C78.4921 187.028 94.0485 192.282 108.15 174.426C112.984 168.263 118.597 165.719 118.597 165.719C120.51 166.853 119.049 173.121 112.251 178.268C112.251 178.268 122.868 178.552 129.496 171.882C136.125 165.212 140.618 155.602 140.618 155.602C145.17 163.63 133.767 173.8 133.767 173.8C133.767 173.8 144.496 170.973 157.248 158.14C167.132 148.194 174.212 123.379 159.999 109.136C145.786 94.8924 120.457 97.4365 108.039 109.986C102.589 115.469 97.0284 124.005 96.301 131.011C96.301 131.011 106.748 119.648 110.456 124.453C110.456 124.453 92.7639 135.19 89.8954 145.426C89.9541 145.426 98.7706 140.113 100.847 141.807Z" fill="url(#paint17_radial_27_904)"/>
<path d="M206.95 129.205C205.66 116.602 208.581 103.203 215.209 91.1086L217.286 87.2659L184.877 108.575L182.184 128.189L169.543 140.396C172.241 151.021 172.353 161.422 172.353 161.422C193.863 148.477 206.956 129.205 206.956 129.205H206.95Z" fill="url(#paint18_linear_27_904)"/>
<path d="M172.406 161.475C172.406 161.475 172.347 150.962 169.596 140.45L174.934 135.308C176.565 138.927 179.762 147.067 180.553 156.051C177.967 157.857 175.274 159.781 172.406 161.475Z" fill="url(#paint19_linear_27_904)"/>
<path opacity="0.75" d="M206.95 129.205C205.66 116.602 208.581 103.203 215.209 91.1086L217.286 87.2659L184.877 108.575L182.184 128.189L169.543 140.396C172.241 151.021 172.353 161.422 172.353 161.422C193.863 148.477 206.956 129.205 206.956 129.205H206.95Z" fill="url(#paint20_radial_27_904)"/>
<path d="M210.094 102.808C211.443 98.853 213.127 94.8923 215.204 91.1086L216.383 88.96C216.101 88.7888 215.819 88.6236 215.538 88.4524L184.924 108.634L183.07 121.862C190.033 118.981 199.923 113.102 210.088 102.814L210.094 102.808Z" fill="url(#paint21_linear_27_904)"/>
<path d="M174.934 53.6911C174.6 52.9002 174.429 52.3335 174.148 51.6016C162.07 57.3685 148.42 59.0036 135.28 56.5185C135.28 56.5185 115.846 69.3511 103.88 92.0707C103.88 92.0707 115.002 93.145 126.687 97.1588L138.653 84.2141L157.975 83.0808C162.299 73.3 167.525 62.8463 174.94 53.6911H174.934Z" fill="url(#paint22_linear_27_904)"/>
<path d="M103.88 92.0117C103.88 92.0117 115.002 93.086 126.687 97.0999L131.796 91.5631C127.696 89.4145 118.82 85.2885 108.989 83.5354C107.194 86.1916 105.452 89.019 103.88 92.0117Z" fill="url(#paint23_linear_27_904)"/>
<path opacity="0.75" d="M174.934 53.6911C174.6 52.9002 174.429 52.3335 174.148 51.6016C162.07 57.3685 148.42 59.0036 135.28 56.5185C135.28 56.5185 115.846 69.3511 103.88 92.0707C103.88 92.0707 115.002 93.145 126.687 97.1588L138.653 84.2141L157.975 83.0808C162.299 73.3 167.525 62.8463 174.94 53.6911H174.934Z" fill="url(#paint24_radial_27_904)"/>
<path d="M174.148 51.5367C169.432 55.155 154.655 69.5105 149.487 83.4704L157.911 82.9628C162.234 73.3 168.81 62.6161 176.224 53.455L174.148 51.5308V51.5367Z" fill="url(#paint25_linear_27_904)"/>
<path d="M179.263 48.7741C184.261 56.9671 190.889 65.107 198.251 72.3438C198.585 72.6802 198.984 73.0226 199.319 73.359C205.554 79.3503 212.294 84.6628 219.145 88.9009C219.761 88.2811 220.383 87.7145 220.999 87.0947C238.691 69.292 248.974 55.8928 257.79 38.8812C251.502 26.6153 241.166 16.2147 228.977 9.88696C212.071 18.7588 198.814 29.0472 181.064 46.9089C180.448 47.5287 179.826 48.1544 179.269 48.7741H179.263Z" fill="url(#paint26_linear_27_904)"/>
<path d="M257.732 38.8813C269.698 15.7662 268.179 3.32915 266.214 1.35173C264.249 -0.625683 251.948 -2.15449 228.918 9.88708C241.108 16.2148 251.443 26.6154 257.732 38.8813Z" fill="url(#paint27_linear_27_904)"/>
<path d="M158.984 109.307C165.331 115.693 171.174 120.386 172.746 120.386C187.012 114.111 204.035 103.599 219.145 88.9009C212.347 84.6628 205.554 79.3503 199.319 73.359C198.984 73.0226 198.585 72.6802 198.251 72.3438C190.895 65.107 184.267 56.9672 179.263 48.7742C164.657 63.9796 154.21 81.2156 147.974 95.5769C148.197 97.33 152.749 103.097 158.984 109.313V109.307Z" fill="url(#paint28_linear_27_904)"/>
<path opacity="0.75" d="M158.984 109.307C165.331 115.693 171.174 120.386 172.746 120.386C187.012 114.111 204.035 103.599 219.145 88.9009C212.347 84.6628 205.554 79.3503 199.319 73.359C198.984 73.0226 198.585 72.6802 198.251 72.3438C190.895 65.107 184.267 56.9672 179.263 48.7742C164.657 63.9796 154.21 81.2156 147.974 95.5769C148.197 97.33 152.749 103.097 158.984 109.313V109.307Z" fill="url(#paint29_radial_27_904)"/>
<path opacity="0.5" d="M199.313 73.359C198.978 73.0226 198.579 72.6802 198.245 72.3438C190.889 65.107 184.261 56.9672 179.257 48.7742C178.864 49.1697 178.524 49.5651 178.189 49.9606C188.414 69.4042 219.644 87.9447 195.828 97.7196C180.213 104.165 173.192 111.792 169.426 118.574C170.998 119.76 172.236 120.38 172.799 120.38C187.065 114.106 204.088 103.593 219.198 88.895C212.288 84.6569 205.548 79.3444 199.313 73.3531V73.359Z" fill="url(#paint30_radial_27_904)"/>
<path d="M158.984 109.307C152.808 103.091 148.256 97.3242 147.974 95.571L139.21 99.4727C138.201 100.488 143.927 108.008 152.127 116.201C160.269 124.4 167.742 130.22 168.751 129.199L172.74 120.38C171.168 120.38 165.326 115.688 158.979 109.301L158.984 109.307Z" fill="url(#paint31_linear_27_904)"/>
<path d="M158.984 109.307C152.808 103.091 148.256 97.3242 147.974 95.571L139.21 99.4727C138.201 100.488 143.927 108.008 152.127 116.201C160.269 124.4 167.742 130.22 168.751 129.199L172.74 120.38C171.168 120.38 165.326 115.688 158.979 109.301L158.984 109.307Z" fill="url(#paint32_linear_27_904)"/>
<path d="M255.315 43.4027C255.426 43.2315 257.673 39.0524 257.732 38.8812C251.443 26.6153 241.102 16.2147 228.918 9.88696C228.748 9.99911 228.584 10.0581 228.414 10.1703C240.38 17.0116 253.913 32.3823 255.321 43.4086L255.315 43.4027Z" fill="url(#paint33_linear_27_904)"/>
<path opacity="0.75" d="M266.214 1.35173C264.249 -0.625683 251.948 -2.15449 228.918 9.88708C212.012 18.7589 198.755 29.0473 181.005 46.909C180.389 47.5288 179.826 48.1545 179.21 48.7743C164.604 63.9797 154.157 81.2157 147.921 95.577C148.203 97.3301 152.755 103.097 158.932 109.313C165.279 115.699 171.121 120.392 172.693 120.392C186.959 114.118 203.982 103.605 219.093 88.9069C219.709 88.2871 220.33 87.7205 220.946 87.1007C238.638 69.2981 248.921 55.8989 257.737 38.8872C269.757 15.7721 268.243 3.33505 266.22 1.35763L266.214 1.35173Z" fill="url(#paint34_radial_27_904)"/>
<path d="M145.387 138.136C164.258 122.818 179.034 105.748 179.427 105.299L176.506 102.359C176.506 102.359 161.114 119.259 142.748 135.48L145.387 138.136Z" fill="url(#paint35_linear_27_904)"/>
<path d="M176.453 102.359C179.879 95.8014 185.663 87.5494 193.077 78.6776C192.907 78.5064 192.743 78.3411 192.514 78.1699C184.484 85.8553 176.506 92.8087 169.373 98.9121L161.061 111.178L148.537 123.556C146.349 129.093 142.642 135.48 142.642 135.48C161.067 119.259 176.459 102.359 176.459 102.359H176.453Z" fill="url(#paint36_linear_27_904)"/>
<path d="M149.206 129.6C149.206 129.6 153.588 121.632 153.195 119.029L148.59 123.609C146.402 129.146 142.695 135.533 142.695 135.533C144.941 133.496 147.077 131.519 149.212 129.6H149.206Z" fill="url(#paint37_linear_27_904)"/>
<path d="M179.427 105.299C181.897 97.7256 187.458 89.2493 194.591 80.0351C194.086 79.5806 193.634 79.132 193.13 78.6775C185.715 87.5493 179.932 95.8013 176.5 102.359C176.5 102.359 161.108 119.259 142.742 135.479L145.44 138.136C164.481 122.647 179.421 105.299 179.421 105.299H179.427Z" fill="url(#paint38_linear_27_904)"/>
<path d="M145.387 138.136C164.258 122.818 179.034 105.748 179.427 105.299L176.506 102.359C176.506 102.359 161.114 119.259 142.748 135.48L145.387 138.136Z" fill="url(#paint39_linear_27_904)"/>
<path opacity="0.75" d="M176.453 102.359C179.879 95.8014 185.663 87.5494 193.077 78.6776C192.907 78.5064 192.743 78.3411 192.514 78.1699C184.484 85.8553 176.506 92.8087 169.373 98.9121L161.061 111.178L148.537 123.556C146.349 129.093 142.642 135.48 142.642 135.48C161.067 119.259 176.459 102.359 176.459 102.359H176.453Z" fill="url(#paint40_radial_27_904)"/>
<path opacity="0.75" d="M266.214 1.35173C264.249 -0.625683 251.948 -2.15449 228.918 9.88708C212.012 18.7589 198.755 29.0473 181.005 46.909C180.389 47.5288 179.826 48.1545 179.21 48.7743C164.604 63.9797 154.157 81.2157 147.921 95.577C148.203 97.3301 152.755 103.097 158.932 109.313C165.279 115.699 171.121 120.392 172.693 120.392C186.959 114.118 203.982 103.605 219.093 88.9069C219.709 88.2871 220.33 87.7205 220.946 87.1007C238.638 69.2981 248.921 55.8989 257.737 38.8872C269.757 15.7721 268.243 3.33505 266.22 1.35763L266.214 1.35173Z" fill="url(#paint41_radial_27_904)"/>
<g opacity="0.16">
<path opacity="0.16" d="M226.05 82.0065C218.635 77.5972 210.939 71.6059 203.636 64.3161C196.392 57.0262 190.438 49.2818 186.056 41.7617" stroke="black" stroke-width="16.67" stroke-linecap="round" stroke-linejoin="round"/>
<path opacity="0.16" d="M248.07 41.7087C249.754 43.7983 251.273 45.8347 252.734 47.8712" stroke="black" stroke-width="16.67" stroke-linecap="round" stroke-linejoin="round"/>
<g opacity="0.16">
<path opacity="0.16" d="M238.966 16.1616C238.233 16.6693 237.506 17.2359 236.778 17.8026C222.061 28.882 209.59 40.0146 191.898 57.8231C191.282 58.4429 190.66 59.0686 190.103 59.6884C189.54 60.3081 188.924 60.8748 188.361 61.4946" stroke="black" stroke-width="16.67" stroke-linecap="round" stroke-linejoin="round"/>
</g>
<path opacity="0.16" d="M218.242 76.8653C233.799 60.9279 243.741 48.8273 253.121 34.2475C253.514 33.6809 253.854 33.1142 254.189 32.5535" stroke="black" stroke-width="16.67" stroke-linecap="round" stroke-linejoin="round"/>
</g>
<path opacity="0.75" d="M168.757 116.372C181.674 108.799 197.688 97.153 212.681 82.4021L168.757 116.372Z" fill="url(#paint42_radial_27_904)"/>
<path d="M226.666 50.2972C219.474 56.9673 208.804 57.0263 202.85 50.4094C196.896 43.7983 197.964 33.0022 205.155 26.3321C212.347 19.6621 223.017 19.603 228.971 26.22C234.925 32.831 233.857 43.6271 226.666 50.2972Z" fill="url(#paint43_linear_27_904)"/>
<path d="M223.58 46.5668C217.685 52.0504 208.921 52.1035 204.035 46.6789C199.148 41.2543 199.987 32.3766 205.941 26.8989C211.842 21.4152 220.6 21.3621 225.487 26.7867C230.32 32.2113 229.475 41.089 223.574 46.5668H223.58Z" fill="url(#paint44_linear_27_904)"/>
<path d="M222.172 45.097C216.893 50.0139 209.085 50.0139 204.756 45.2091C200.433 40.3512 201.161 32.4887 206.44 27.5717C211.719 22.6548 219.527 22.6548 223.856 27.4596C228.179 32.2644 227.452 40.18 222.172 45.097Z" fill="url(#paint45_radial_27_904)"/>
<path opacity="0.5" d="M222.172 45.097C216.893 50.0139 209.085 50.0139 204.756 45.2091C200.433 40.3512 201.161 32.4887 206.44 27.5717C211.719 22.6548 219.527 22.6548 223.856 27.4596C228.179 32.2644 227.452 40.18 222.172 45.097Z" fill="url(#paint46_radial_27_904)"/>
<path opacity="0.5" d="M222.847 31.0839C224.812 33.2856 225.88 36.0599 226.102 38.9404C227.34 34.9266 226.666 30.5763 223.856 27.4655C219.533 22.6017 211.725 22.6607 206.44 27.5777C205.935 28.0853 205.431 28.593 204.979 29.1596C210.992 25.4881 218.406 26.161 222.841 31.0839H222.847Z" fill="black"/>
<path d="M223.856 27.4655C219.533 22.6017 211.725 22.6607 206.44 27.5777C201.161 32.4947 200.427 40.3512 204.756 45.215C205.208 45.7227 205.654 46.065 205.372 45.8348C201.495 41.9331 202.674 33.9113 207.678 28.8763C211.719 24.8093 219.474 23.3395 223.856 27.4655Z" fill="url(#paint47_linear_27_904)"/>
<path opacity="0.5" d="M223.862 27.4655C219.48 23.2805 211.672 24.8093 207.683 28.8231C202.909 33.628 201.618 41.2012 204.874 45.274C205.378 45.5574 205.607 46.065 205.325 45.8407C205.155 45.6695 204.991 45.5042 204.874 45.274C204.815 45.274 204.762 45.215 204.704 45.215C209.027 50.0789 216.834 50.0198 222.12 45.1029C227.458 40.1859 228.244 32.3294 223.862 27.4655Z" fill="url(#paint48_radial_27_904)"/>
<path d="M257.843 38.7101C251.555 26.4443 241.33 16.1027 229.141 9.76904" stroke="#008EE6" stroke-width="15" stroke-linecap="round" stroke-linejoin="round"/>
<path d="M219.14 88.9009C212.341 84.6628 205.548 79.3503 199.313 73.359C198.978 73.0226 198.579 72.6802 198.245 72.3438C190.889 65.107 184.261 56.9672 179.257 48.7742" stroke="#008EE6" stroke-width="15" stroke-linecap="round" stroke-linejoin="round"/>
</g>
<defs>
<linearGradient id="paint0_linear_27_904" x1="0" y1="242.779" x2="351" y2="242.779" gradientUnits="userSpaceOnUse">
<stop stop-color="#FF5509"/>
<stop offset="1" stop-color="#FFE247"/>
</linearGradient>
<linearGradient id="paint1_linear_27_904" x1="157.519" y1="99.8936" x2="67.4586" y2="218.181" gradientUnits="userSpaceOnUse">
<stop stop-color="#FF0000"/>
<stop offset="0.23" stop-color="#FF1500"/>
<stop offset="0.74" stop-color="#FF3D00"/>
<stop offset="1" stop-color="#FF4C00"/>
</linearGradient>
<linearGradient id="paint2_linear_27_904" x1="140.314" y1="88.6795" x2="51.2393" y2="205.596" gradientUnits="userSpaceOnUse">
<stop stop-color="#FF0000"/>
<stop offset="0.23" stop-color="#FF1500"/>
<stop offset="0.74" stop-color="#FF3D00"/>
<stop offset="1" stop-color="#FF4C00"/>
</linearGradient>
<linearGradient id="paint3_linear_27_904" x1="165.535" y1="103.435" x2="74.2921" y2="223.289" gradientUnits="userSpaceOnUse">
<stop stop-color="#FF0000"/>
<stop offset="0.23" stop-color="#FF1500"/>
<stop offset="0.74" stop-color="#FF3D00"/>
<stop offset="1" stop-color="#FF4C00"/>
</linearGradient>
<linearGradient id="paint4_linear_27_904" x1="139.728" y1="118.584" x2="81.661" y2="238.704" gradientUnits="userSpaceOnUse">
<stop stop-color="#FF8000"/>
<stop offset="0.64" stop-color="#FF5B00"/>
<stop offset="1" stop-color="#FF4C00"/>
</linearGradient>
<radialGradient id="paint5_radial_27_904" cx="0" cy="0" r="1" gradientUnits="userSpaceOnUse" gradientTransform="translate(56.0499 186.293) rotate(-134.821) scale(46.3511 58.8542)">
<stop stop-color="#FFED1C" stop-opacity="0.6"/>
<stop offset="0.95" stop-color="#FFED1C" stop-opacity="0.03"/>
<stop offset="0.99" stop-color="#FFED1C" stop-opacity="0"/>
</radialGradient>
<linearGradient id="paint6_linear_27_904" x1="93.1959" y1="190.196" x2="145.444" y2="115.545" gradientUnits="userSpaceOnUse">
<stop stop-color="#FF8000"/>
<stop offset="0.02" stop-color="#FE7F02" stop-opacity="0.98"/>
<stop offset="0.67" stop-color="#ED582A" stop-opacity="0.33"/>
<stop offset="1" stop-color="#E74939" stop-opacity="0"/>
</linearGradient>
<linearGradient id="paint7_linear_27_904" x1="152.827" y1="112.878" x2="105.643" y2="154.884" gradientUnits="userSpaceOnUse">
<stop stop-color="#FFBC47"/>
<stop offset="0.19" stop-color="#FFB137" stop-opacity="0.81"/>
<stop offset="0.72" stop-color="#FF940F" stop-opacity="0.28"/>
<stop offset="1" stop-color="#FF8900" stop-opacity="0"/>
</linearGradient>
<radialGradient id="paint8_radial_27_904" cx="0" cy="0" r="1" gradientUnits="userSpaceOnUse" gradientTransform="translate(139.586 126.595) rotate(-134.821) scale(35.8534 36.956)">
<stop stop-color="#FFBC47"/>
<stop offset="0.29" stop-color="#FFBF4B" stop-opacity="0.71"/>
<stop offset="0.56" stop-color="#FEC656" stop-opacity="0.44"/>
<stop offset="0.82" stop-color="#FCD368" stop-opacity="0.18"/>
<stop offset="1" stop-color="#FBE07A" stop-opacity="0"/>
</radialGradient>
<radialGradient id="paint9_radial_27_904" cx="0" cy="0" r="1" gradientUnits="userSpaceOnUse" gradientTransform="translate(139.592 128.907) rotate(-134.821) scale(34.7501 35.8174)">
<stop stop-color="white"/>
<stop offset="1" stop-color="white" stop-opacity="0"/>
</radialGradient>
<radialGradient id="paint10_radial_27_904" cx="0" cy="0" r="1" gradientUnits="userSpaceOnUse" gradientTransform="translate(154.456 135.814) rotate(-134.821) scale(42.6881 63.1174)">
<stop stop-color="#FFED1C" stop-opacity="0.6"/>
<stop offset="0.95" stop-color="#FFED1C" stop-opacity="0.03"/>
<stop offset="0.99" stop-color="#FFED1C" stop-opacity="0"/>
</radialGradient>
<radialGradient id="paint11_radial_27_904" cx="0" cy="0" r="1" gradientUnits="userSpaceOnUse" gradientTransform="translate(139.17 126.952) rotate(-42.9086) scale(17.1251 10.9592)">
<stop stop-color="white"/>
<stop offset="1" stop-color="white" stop-opacity="0"/>
</radialGradient>
<radialGradient id="paint12_radial_27_904" cx="0" cy="0" r="1" gradientUnits="userSpaceOnUse" gradientTransform="translate(80.1944 177.457) rotate(-134.821) scale(15.3141 19.4445)">
<stop stop-color="#FFED1C"/>
<stop offset="0.2" stop-color="#FFEE2B" stop-opacity="0.8"/>
<stop offset="0.58" stop-color="#FFF254" stop-opacity="0.42"/>
<stop offset="1" stop-color="#FFF686" stop-opacity="0"/>
</radialGradient>
<radialGradient id="paint13_radial_27_904" cx="0" cy="0" r="1" gradientUnits="userSpaceOnUse" gradientTransform="translate(107.464 189.118) rotate(162.498) scale(14.7729 3.0028)">
<stop stop-color="#FFED1C" stop-opacity="0.6"/>
<stop offset="0.95" stop-color="#FFED1C" stop-opacity="0.03"/>
<stop offset="0.99" stop-color="#FFED1C" stop-opacity="0"/>
</radialGradient>
<radialGradient id="paint14_radial_27_904" cx="0" cy="0" r="1" gradientUnits="userSpaceOnUse" gradientTransform="translate(94.5601 191.837) rotate(-41.1975) scale(14.1281 4.49163)">
<stop stop-color="#FFED1C"/>
<stop offset="0.2" stop-color="#FFEE2B" stop-opacity="0.8"/>
<stop offset="0.58" stop-color="#FFF254" stop-opacity="0.42"/>
<stop offset="1" stop-color="#FFF686" stop-opacity="0"/>
</radialGradient>
<radialGradient id="paint15_radial_27_904" cx="0" cy="0" r="1" gradientUnits="userSpaceOnUse" gradientTransform="translate(82.1892 181.421) rotate(-134.821) scale(47.784 60.6754)">
<stop stop-color="#FF4C00"/>
<stop offset="0.14" stop-color="#FF5B0C" stop-opacity="0.87"/>
<stop offset="0.39" stop-color="#FF842C" stop-opacity="0.61"/>
<stop offset="0.75" stop-color="#FFC45F" stop-opacity="0.25"/>
<stop offset="1" stop-color="#FFF686" stop-opacity="0"/>
</radialGradient>
<radialGradient id="paint16_radial_27_904" cx="0" cy="0" r="1" gradientUnits="userSpaceOnUse" gradientTransform="translate(99.0537 130.715) rotate(-134.821) scale(25.3616 32.2045)">
<stop stop-color="#FFED1C"/>
<stop offset="0.2" stop-color="#FFEE2B" stop-opacity="0.8"/>
<stop offset="0.58" stop-color="#FFF254" stop-opacity="0.42"/>
<stop offset="1" stop-color="#FFF686" stop-opacity="0"/>
</radialGradient>
<radialGradient id="paint17_radial_27_904" cx="0" cy="0" r="1" gradientUnits="userSpaceOnUse" gradientTransform="translate(137.932 131.762) rotate(-134.821) scale(53.0358 67.3452)">
<stop stop-color="#FFED1C"/>
<stop offset="0.2" stop-color="#FFEE2B" stop-opacity="0.8"/>
<stop offset="0.58" stop-color="#FFF254" stop-opacity="0.42"/>
<stop offset="1" stop-color="#FFF686" stop-opacity="0"/>
</radialGradient>
<linearGradient id="paint18_linear_27_904" x1="153.022" y1="165.014" x2="211.086" y2="102.813" gradientUnits="userSpaceOnUse">
<stop stop-color="#BD2719"/>
<stop offset="0.22" stop-color="#D41A10"/>
<stop offset="0.5" stop-color="#EC0C07"/>
<stop offset="0.77" stop-color="#FA0302"/>
<stop offset="1" stop-color="#FF0000"/>
</linearGradient>
<linearGradient id="paint19_linear_27_904" x1="186.65" y1="135.7" x2="168.357" y2="153.489" gradientUnits="userSpaceOnUse">
<stop stop-color="#FC8D41"/>
<stop offset="0.09" stop-color="#FC7837"/>
<stop offset="0.29" stop-color="#FD4D24"/>
<stop offset="0.49" stop-color="#FE2C14"/>
<stop offset="0.68" stop-color="#FF1409"/>
<stop offset="0.85" stop-color="#FF0502"/>
<stop offset="1" stop-color="#FF0000"/>
</linearGradient>
<radialGradient id="paint20_radial_27_904" cx="0" cy="0" r="1" gradientUnits="userSpaceOnUse" gradientTransform="translate(144.493 159.454) rotate(45.1791) scale(77.756 77.7544)">
<stop stop-color="#FFED1C"/>
<stop offset="0.2" stop-color="#FFEE2B" stop-opacity="0.8"/>
<stop offset="0.58" stop-color="#FFF254" stop-opacity="0.42"/>
<stop offset="1" stop-color="#FFF686" stop-opacity="0"/>
</radialGradient>
<linearGradient id="paint21_linear_27_904" x1="188.019" y1="115.829" x2="277.813" y2="12.3102" gradientUnits="userSpaceOnUse">
<stop stop-color="#BD2719"/>
<stop offset="0.22" stop-color="#D41A10"/>
<stop offset="0.5" stop-color="#EC0C07"/>
<stop offset="0.77" stop-color="#FA0302"/>
<stop offset="1" stop-color="#FF0000"/>
</linearGradient>
<linearGradient id="paint22_linear_27_904" x1="97.6927" y1="92.4174" x2="152.176" y2="65.9299" gradientUnits="userSpaceOnUse">
<stop stop-color="#BD2719"/>
<stop offset="0.22" stop-color="#D41A10"/>
<stop offset="0.5" stop-color="#EC0C07"/>
<stop offset="0.77" stop-color="#FA0302"/>
<stop offset="1" stop-color="#FF0000"/>
</linearGradient>
<linearGradient id="paint23_linear_27_904" x1="128.779" y1="76.6784" x2="111.448" y2="97.0323" gradientUnits="userSpaceOnUse">
<stop stop-color="#FC8D41"/>
<stop offset="0.09" stop-color="#FC7837"/>
<stop offset="0.29" stop-color="#FD4D24"/>
<stop offset="0.49" stop-color="#FE2C14"/>
<stop offset="0.68" stop-color="#FF1409"/>
<stop offset="0.85" stop-color="#FF0502"/>
<stop offset="1" stop-color="#FF0000"/>
</linearGradient>
<radialGradient id="paint24_radial_27_904" cx="0" cy="0" r="1" gradientUnits="userSpaceOnUse" gradientTransform="translate(135.912 128.089) rotate(45.1791) scale(83.6344 83.6328)">
<stop stop-color="#FFED1C"/>
<stop offset="0.2" stop-color="#FFEE2B" stop-opacity="0.8"/>
<stop offset="0.58" stop-color="#FFF254" stop-opacity="0.42"/>
<stop offset="1" stop-color="#FFF686" stop-opacity="0"/>
</radialGradient>
<linearGradient id="paint25_linear_27_904" x1="172.965" y1="65.2675" x2="85.1775" y2="69.3478" gradientUnits="userSpaceOnUse">
<stop stop-color="#BD2719"/>
<stop offset="0.22" stop-color="#D41A10"/>
<stop offset="0.5" stop-color="#EC0C07"/>
<stop offset="0.77" stop-color="#FA0302"/>
<stop offset="1" stop-color="#FF0000"/>
</linearGradient>
<linearGradient id="paint26_linear_27_904" x1="204.638" y1="27.2971" x2="240.246" y2="62.684" gradientUnits="userSpaceOnUse">
<stop stop-color="#BBCACC"/>
<stop offset="0.37" stop-color="white"/>
<stop offset="1" stop-color="#99AFB3"/>
</linearGradient>
<linearGradient id="paint27_linear_27_904" x1="264.464" y1="24.9363" x2="245.154" y2="0.0674035" gradientUnits="userSpaceOnUse">
<stop stop-color="#008EE6"/>
<stop offset="0.69" stop-color="#80DAFE"/>
<stop offset="0.73" stop-color="#76D5FB"/>
<stop offset="0.81" stop-color="#5CC8F3"/>
<stop offset="0.9" stop-color="#32B2E6"/>
<stop offset="1" stop-color="#0099D6"/>
</linearGradient>
<linearGradient id="paint28_linear_27_904" x1="196.817" y1="104.222" x2="156.488" y2="64.3393" gradientUnits="userSpaceOnUse">
<stop stop-color="#008EE6"/>
<stop offset="0.69" stop-color="#80DAFE"/>
<stop offset="0.73" stop-color="#76D5FB"/>
<stop offset="0.81" stop-color="#5CC8F3"/>
<stop offset="0.9" stop-color="#32B2E6"/>
<stop offset="1" stop-color="#0099D6"/>
</linearGradient>
<radialGradient id="paint29_radial_27_904" cx="0" cy="0" r="1" gradientUnits="userSpaceOnUse" gradientTransform="translate(168.238 118.469) rotate(45.1791) scale(38.0924 69.7166)">
<stop stop-opacity="0.75"/>
<stop offset="1" stop-opacity="0"/>
</radialGradient>
<radialGradient id="paint30_radial_27_904" cx="0" cy="0" r="1" gradientUnits="userSpaceOnUse" gradientTransform="translate(213.021 109.878) rotate(45.1791) scale(38.0924 69.7166)">
<stop stop-opacity="0.75"/>
<stop offset="1" stop-opacity="0"/>
</radialGradient>
<linearGradient id="paint31_linear_27_904" x1="144.811" y1="93.4011" x2="170.232" y2="126.496" gradientUnits="userSpaceOnUse">
<stop/>
<stop offset="0.2" stop-color="#4D4D4C"/>
<stop offset="0.77"/>
</linearGradient>
<linearGradient id="paint32_linear_27_904" x1="144.811" y1="93.4011" x2="170.232" y2="126.496" gradientUnits="userSpaceOnUse">
<stop stop-opacity="0"/>
<stop offset="0.2" stop-color="#CFDCDE" stop-opacity="0.5"/>
<stop offset="0.77" stop-opacity="0"/>
</linearGradient>
<linearGradient id="paint33_linear_27_904" x1="197.599" y1="14.5091" x2="255.31" y2="27.5347" gradientUnits="userSpaceOnUse">
<stop stop-color="#BBCACC"/>
<stop offset="0.37" stop-color="white"/>
<stop offset="1" stop-color="#99AFB3"/>
</linearGradient>
<radialGradient id="paint34_radial_27_904" cx="0" cy="0" r="1" gradientUnits="userSpaceOnUse" gradientTransform="translate(221.593 96.0587) rotate(44.4091) scale(24.574 79.5911)">
<stop stop-color="#440063" stop-opacity="0.75"/>
<stop offset="1" stop-color="#420061" stop-opacity="0"/>
</radialGradient>
<linearGradient id="paint35_linear_27_904" x1="141.878" y1="131.372" x2="208.4" y2="88.6653" gradientUnits="userSpaceOnUse">
<stop stop-color="#BD2719"/>
<stop offset="0.22" stop-color="#D41A10"/>
<stop offset="0.5" stop-color="#EC0C07"/>
<stop offset="0.77" stop-color="#FA0302"/>
<stop offset="1" stop-color="#FF0000"/>
</linearGradient>
<linearGradient id="paint36_linear_27_904" x1="131.125" y1="133.536" x2="165.496" y2="107.577" gradientUnits="userSpaceOnUse">
<stop stop-color="#BD2719"/>
<stop offset="0.22" stop-color="#D41A10"/>
<stop offset="0.5" stop-color="#EC0C07"/>
<stop offset="0.77" stop-color="#FA0302"/>
<stop offset="1" stop-color="#FF0000"/>
</linearGradient>
<linearGradient id="paint37_linear_27_904" x1="163.58" y1="111.501" x2="143.914" y2="129.872" gradientUnits="userSpaceOnUse">
<stop stop-color="#FC8D41"/>
<stop offset="0.09" stop-color="#FC7837"/>
<stop offset="0.29" stop-color="#FD4D24"/>
<stop offset="0.49" stop-color="#FE2C14"/>
<stop offset="0.68" stop-color="#FF1409"/>
<stop offset="0.85" stop-color="#FF0502"/>
<stop offset="1" stop-color="#FF0000"/>
</linearGradient>
<linearGradient id="paint38_linear_27_904" x1="162.994" y1="124.289" x2="186.52" y2="57.4898" gradientUnits="userSpaceOnUse">
<stop stop-color="#BD2719"/>
<stop offset="0.22" stop-color="#D41A10"/>
<stop offset="0.5" stop-color="#EC0C07"/>
<stop offset="0.77" stop-color="#FA0302"/>
<stop offset="1" stop-color="#FF0000"/>
</linearGradient>
<linearGradient id="paint39_linear_27_904" x1="141.878" y1="131.372" x2="208.4" y2="88.6653" gradientUnits="userSpaceOnUse">
<stop stop-color="#BD2719"/>
<stop offset="0.22" stop-color="#D41A10"/>
<stop offset="0.5" stop-color="#EC0C07"/>
<stop offset="0.77" stop-color="#FA0302"/>
<stop offset="1" stop-color="#FF0000"/>
</linearGradient>
<radialGradient id="paint40_radial_27_904" cx="0" cy="0" r="1" gradientUnits="userSpaceOnUse" gradientTransform="translate(140.951 125.996) rotate(-39.2254) scale(58.5616 19.6631)">
<stop stop-color="#FFED1C"/>
<stop offset="0.2" stop-color="#FFEE2B" stop-opacity="0.8"/>
<stop offset="0.58" stop-color="#FFF254" stop-opacity="0.42"/>
<stop offset="1" stop-color="#FFF686" stop-opacity="0"/>
</radialGradient>
<radialGradient id="paint41_radial_27_904" cx="0" cy="0" r="1" gradientUnits="userSpaceOnUse" gradientTransform="translate(203.963 56.1066) rotate(44.4091) scale(24.574 79.5911)">
<stop stop-color="white" stop-opacity="0.5"/>
<stop offset="1" stop-color="white" stop-opacity="0"/>
</radialGradient>
<radialGradient id="paint42_radial_27_904" cx="0" cy="0" r="1" gradientUnits="userSpaceOnUse" gradientTransform="translate(195.799 106.876) rotate(44.039) scale(5.966 28.654)">
<stop stop-color="#440063" stop-opacity="0.75"/>
<stop offset="1" stop-color="#420061" stop-opacity="0"/>
</radialGradient>
<linearGradient id="paint43_linear_27_904" x1="207.375" y1="56.6112" x2="225.943" y2="16.5649" gradientUnits="userSpaceOnUse">
<stop stop-color="#BD2719"/>
<stop offset="0.22" stop-color="#D41A10"/>
<stop offset="0.5" stop-color="#EC0C07"/>
<stop offset="0.77" stop-color="#FA0302"/>
<stop offset="1" stop-color="#FF0000"/>
</linearGradient>
<linearGradient id="paint44_linear_27_904" x1="220.474" y1="18.0506" x2="210.388" y2="51.6583" gradientUnits="userSpaceOnUse">
<stop stop-color="#FC8D41"/>
<stop offset="0.09" stop-color="#FC7837"/>
<stop offset="0.29" stop-color="#FD4D24"/>
<stop offset="0.49" stop-color="#FE2C14"/>
<stop offset="0.68" stop-color="#FF1409"/>
<stop offset="0.85" stop-color="#FF0502"/>
<stop offset="1" stop-color="#FF0000"/>
</linearGradient>
<radialGradient id="paint45_radial_27_904" cx="0" cy="0" r="1" gradientUnits="userSpaceOnUse" gradientTransform="translate(207.839 34.7901) rotate(45.1791) scale(32.4964 32.4958)">
<stop stop-color="#512D00"/>
<stop offset="1"/>
</radialGradient>
<radialGradient id="paint46_radial_27_904" cx="0" cy="0" r="1" gradientUnits="userSpaceOnUse" gradientTransform="translate(216.766 27.9655) scale(28.4205 28.5987)">
<stop offset="0.49" stop-color="#F5CBC0" stop-opacity="0"/>
<stop offset="1" stop-color="#E67E62"/>
</radialGradient>
<linearGradient id="paint47_linear_27_904" x1="214.022" y1="24.543" x2="215.21" y2="2.70585" gradientUnits="userSpaceOnUse">
<stop stop-color="#BD2719"/>
<stop offset="0.04" stop-color="#B42717"/>
<stop offset="0.26" stop-color="#89250F"/>
<stop offset="0.47" stop-color="#682408"/>
<stop offset="0.66" stop-color="#502304"/>
<stop offset="0.85" stop-color="#412201"/>
<stop offset="1" stop-color="#3C2200"/>
</linearGradient>
<radialGradient id="paint48_radial_27_904" cx="0" cy="0" r="1" gradientUnits="userSpaceOnUse" gradientTransform="translate(174.78 24.8744) scale(38.5421 38.7839)">
<stop stop-color="white" stop-opacity="0.5"/>
<stop offset="1" stop-color="white" stop-opacity="0"/>
</radialGradient>
<clipPath id="clip0_27_904">
<rect width="351" height="259" fill="white"/>
</clipPath>
</defs>
</svg>
