<svg width="66" height="65" viewBox="0 0 66 65" fill="none" xmlns="http://www.w3.org/2000/svg">
<path fill-rule="evenodd" clip-rule="evenodd" d="M0 23C0 10.2974 10.2975 0 23 0H42.4159C55.1185 0 65.4159 10.2975 65.4159 23V40.8496C65.4159 53.5521 55.1185 63.8496 42.4159 63.8496H23C10.2975 63.8496 0 53.5521 0 40.8496V23ZM29.6807 37.0444C31.5797 38.7291 34.4398 38.7234 36.332 37.0311L53.7646 21.4407C54.9108 20.4156 54.3983 19 52.8606 19H12.6918C11.282 19.1818 10.8035 20.2978 11.8668 21.2411L29.6807 37.0444ZM33.3815 40.0179C34.4095 40.012 35.4058 39.6556 36.2106 39.006L52.0886 24.9471C53.3792 23.8043 55.4144 24.7206 55.4144 26.4445V44.5324C55.4144 46.9996 53.4443 48.9998 51.0144 49H15.8144C13.3843 49.0002 11.4144 46.9998 11.4144 44.5324V26.4432C11.4144 24.7194 13.4497 23.8019 14.7403 24.9447L30.7129 39.0863C31.475 39.6906 32.4145 40.0184 33.3815 40.0179Z" fill="#1E1E1E"/>
</svg>
