<svg width="51" height="66" viewBox="0 0 51 66" fill="none" xmlns="http://www.w3.org/2000/svg">
<g clip-path="url(#clip0_27_3038)">
<path d="M42.0149 54.62H8.94045C7.90782 54.62 7.06317 55.4351 7.06317 56.4573C7.06317 57.4794 7.89602 58.2945 8.94045 58.2945H42.0258C43.0585 58.2945 43.9031 57.4794 43.9031 56.4573C43.8921 55.4351 43.0593 54.62 42.0149 54.62Z" fill="black"/>
<path d="M42.0149 46.5762H8.94045C7.90782 46.5762 7.06317 47.3913 7.06317 48.4134C7.06317 49.4356 7.89602 50.2507 8.94045 50.2507H42.0258C43.0585 50.2507 43.9031 49.4356 43.9031 48.4134C43.8921 47.3921 43.0593 46.5762 42.0149 46.5762Z" fill="black"/>
<path d="M25.4777 7.7063C21.0353 7.7063 17.4038 11.2497 17.4038 15.6081C17.4038 19.9666 21.0353 23.4993 25.4777 23.4993C29.9201 23.4993 33.5515 19.9559 33.5515 15.5974C33.5515 11.2389 29.9201 7.7063 25.4777 7.7063ZM25.4777 19.8156C23.1123 19.8156 21.1684 17.9132 21.1684 15.5982C21.1684 13.2833 23.1005 11.3808 25.4777 11.3808C27.8548 11.3808 29.7869 13.2833 29.7869 15.5982C29.7869 17.9132 27.843 19.8156 25.4777 19.8156Z" fill="black"/>
<path d="M36.1951 27.4676C29.3426 24.8589 21.6346 24.8589 14.7822 27.4676C12.539 28.3264 11.0394 30.511 11.0394 32.9134V40.3698C11.0285 41.3804 11.8723 42.207 12.9057 42.207H38.0614C39.094 42.207 39.9387 41.3919 39.9387 40.3698V32.9134C39.9387 30.511 38.439 28.3264 36.1959 27.4676H36.1951ZM36.1951 38.5432H14.7822V32.9233C14.7822 32.0323 15.3267 31.2057 16.1368 30.9012C22.1227 28.6292 28.8537 28.6292 34.8396 30.9012C35.6505 31.2164 36.1942 32.0208 36.1942 32.9233V38.5432H36.1951Z" fill="black"/>
<path d="M45.5688 0H14.3716C12.9277 0 11.573 0.543675 10.5513 1.54357L1.57718 10.3257C0.555511 11.3264 0 12.6522 0 14.0654V60.6961C0 63.6199 2.43194 66 5.4194 66H45.5798C48.5672 66 50.9992 63.6199 50.9992 60.6961V5.30393C50.9663 2.38013 48.5335 0 45.5688 0ZM11.0285 6.26093V10.8042H6.38627L11.0285 6.26093ZM47.2235 19.6416H40.2489C39.2162 19.6416 38.3716 20.4567 38.3716 21.4789C38.3716 22.5011 39.2044 23.3162 40.2489 23.3162H47.2235V26.5774H44.6694C43.6367 26.5774 42.7921 27.3925 42.7921 28.4147C42.7921 29.4368 43.6249 30.2519 44.6694 30.2519H47.2235V60.7085C47.2235 61.611 46.4792 62.3387 45.5688 62.3387H5.38652C4.47612 62.3387 3.73179 61.6102 3.73179 60.7192V14.4672H12.9057C13.9384 14.4672 14.783 13.6521 14.783 12.6299V3.65228H45.5696C46.48 3.65228 47.2244 4.38075 47.2244 5.27175V19.6416H47.2235Z" fill="black"/>
</g>
<defs>
<clipPath id="clip0_27_3038">
<rect width="51" height="66" fill="white"/>
</clipPath>
</defs>
</svg>
