<svg width="50" height="50" viewBox="0 0 50 50" fill="none" xmlns="http://www.w3.org/2000/svg">
<g clip-path="url(#clip0_91_494)">
<path d="M25 0C25 13.7009 25 13.7009 25 0C26.0268 22.4292 27.5708 23.9729 50 25C36.2991 25 36.2991 25 50 25C36.2993 25 36.2993 25 50 25C27.5708 26.0271 26.0271 27.5708 25 50C25 36.2991 25 36.2991 25 50C25 36.2993 25 36.2993 25 50C23.9729 27.5711 22.4292 26.0271 0 25C13.7007 25 13.7007 25 0 25C13.7009 25 13.7009 25 0 25C22.4292 23.9729 23.9729 22.4292 25 0C25 13.7007 25 13.7007 25 0Z" fill="#231F20"/>
</g>
<defs>
<clipPath id="clip0_91_494">
<rect width="50" height="50" fill="white"/>
</clipPath>
</defs>
</svg>
