<svg width="324" height="251" viewBox="0 0 324 251" fill="none" xmlns="http://www.w3.org/2000/svg">
<g clip-path="url(#clip0_27_579)">
<path d="M185.246 122.179L154.539 104.43C150.845 102.295 146.231 104.962 146.231 109.232V144.729C146.231 148.999 150.845 151.666 154.539 149.531L185.246 131.782C188.94 129.648 188.94 124.313 185.246 122.179Z" fill="#D9D9D9"/>
<path d="M129.621 192.02H194.13C196.772 192.02 199.347 191.244 201.579 189.83C222.371 176.656 236.174 153.434 236.174 126.98C236.174 106.481 227.882 87.9232 214.479 74.4772C212.263 72.226 210.009 70.2909 208.275 68.9047C206.398 67.3965 205.456 65.0123 205.777 62.6225L210.159 30.3298V29.8363C210.159 15.4865 199.054 0 180.355 0H143.501C124.802 0 113.697 15.4865 113.697 29.8363V30.3298L118.067 62.567C118.389 64.9513 117.453 67.3355 115.581 68.8437C113.98 70.1301 111.836 71.9876 109.372 74.4772C95.8187 88.0729 87.6381 106.315 87.6381 126.98C87.6381 153.762 101.512 176.789 122.194 189.841C124.42 191.25 126.99 192.02 129.621 192.02ZM143.501 12.9359H180.355C187.649 12.9359 197.226 18.6359 197.226 29.3817C197.226 31.5885 195.453 42.8887 194.141 50.9563C193.46 55.1426 189.2 57.6932 185.174 56.368C177.857 53.956 170.042 52.6475 161.922 52.6475C153.803 52.6475 145.982 53.956 138.671 56.368C134.645 57.6987 130.385 55.1426 129.704 50.9563C128.391 42.8831 126.619 31.5885 126.619 29.3817C126.619 18.6359 136.195 12.9359 143.49 12.9359H143.501ZM161.928 83.6205C185.849 83.6205 205.24 103.033 205.24 126.98C205.24 150.928 185.849 170.34 161.928 170.34C138.007 170.34 118.616 150.928 118.616 126.98C118.616 103.033 138.007 83.6205 161.928 83.6205Z" fill="#D9D9D9"/>
<path d="M0 210.495H7.02301C8.61814 210.495 10.0083 211.582 10.3905 213.129L16.2061 236.522H16.3224L24.7965 210.495H30.9057C32.2128 210.495 33.3648 211.343 33.7581 212.591L41.5177 237.215H41.634L48.4466 210.5H53.4147C55.453 210.5 56.9263 212.463 56.3502 214.42L45.6385 251.088H37.6794L28.7456 222.998H28.6293L19.6954 251.088H12.0244L0 210.495Z" fill="#D9D9D9"/>
<path d="M69.5322 246.775H69.4159C68.4633 248.266 67.1894 249.337 65.6053 249.985C64.0213 250.634 62.3486 250.961 60.5929 250.961C59.2968 250.961 58.0451 250.778 56.8432 250.418C55.6413 250.057 54.5834 249.508 53.664 248.782C52.7501 248.056 52.0246 247.158 51.4873 246.087C50.9501 245.017 50.6842 243.775 50.6842 242.361C50.6842 240.759 50.9778 239.4 51.5704 238.291C52.163 237.183 52.9606 236.268 53.9742 235.541C54.9877 234.815 56.1398 234.249 57.4414 233.85C58.7374 233.451 60.0833 233.151 61.479 232.963C62.8692 232.774 64.265 232.658 65.6607 232.619C67.0454 232.58 68.3303 232.564 69.5045 232.564C69.5156 232.564 69.5267 232.553 69.5267 232.542C69.5267 231.022 68.9784 229.819 67.8928 228.921C66.8072 228.023 65.5167 227.512 64.0268 227.573C61.6286 227.673 57.1589 228.993 56.3226 228.156C55.3588 227.191 55.4862 225.949 56.3226 224.296C57.1533 222.661 58.7319 222.367 62.5923 221.885C65.4115 221.53 68.707 221.779 70.928 222.677C71.6148 222.955 73.3982 223.67 74.8216 225.461C75.7964 226.686 76.4722 228.183 76.8543 229.963C77.2365 231.743 77.4248 233.795 77.4248 236.129V250.268C77.4248 250.268 77.4137 250.29 77.4027 250.29H69.5378C69.5378 250.29 69.5156 250.279 69.5156 250.268V246.792L69.5322 246.775ZM67.4165 238.059C66.7684 238.059 65.9543 238.086 64.985 238.147C64.0102 238.203 63.0742 238.369 62.1769 238.635C61.2796 238.901 60.5153 239.306 59.8839 239.838C59.2525 240.376 58.9368 241.119 58.9368 242.073C58.9368 243.104 59.3743 243.869 60.255 244.369C61.1356 244.868 62.0495 245.112 63.0022 245.112C63.8385 245.112 64.6527 244.995 65.4336 244.768C66.2146 244.54 66.9125 244.213 67.5217 243.792C68.131 243.37 68.6184 242.838 68.9839 242.189C69.3439 241.541 69.5267 240.776 69.5267 239.894V238.081C69.5267 238.081 69.5156 238.059 69.5045 238.059H67.4054H67.4165Z" fill="#D9D9D9"/>
<path d="M100.327 229.292H92.7669V238.58C92.7669 239.345 92.8057 240.044 92.8832 240.67C92.9607 241.302 93.1324 241.846 93.3983 242.306C93.6642 242.766 94.074 243.121 94.6279 243.365C95.1817 243.614 95.9184 243.736 96.8323 243.736C97.292 243.736 97.8901 243.687 98.6379 243.592L100.283 243.382C100.283 243.382 100.327 243.398 100.327 243.42V250.102C99.3745 250.446 98.3831 250.673 97.3474 250.789C96.3116 250.906 95.3036 250.961 94.3122 250.961C92.861 250.961 91.5262 250.806 90.3022 250.501C89.0781 250.196 88.0092 249.708 87.0953 249.037C86.1814 248.366 85.4614 247.501 84.9463 246.431C84.4312 245.361 84.1709 244.064 84.1709 242.533V229.292H78.671V222.411H84.1709V214.155H90.7231C91.8475 214.155 92.7614 215.07 92.7614 216.196V222.411H100.322V229.292H100.327Z" fill="#D9D9D9"/>
<path d="M121.684 230.224C121.119 230.817 120.211 230.867 119.557 230.373C119.325 230.196 119.064 230.035 118.782 229.886C118.018 229.486 117.198 229.281 116.317 229.281C114.14 229.281 112.451 229.93 111.249 231.227C110.047 232.525 109.444 234.227 109.444 236.329C109.444 238.43 110.047 240.132 111.249 241.43C112.451 242.727 114.14 243.381 116.317 243.381C117.27 243.381 118.09 243.171 118.782 242.749C119.053 242.583 119.308 242.406 119.546 242.217C120.178 241.724 121.092 241.818 121.645 242.4L125.09 246.026C125.738 246.708 125.666 247.812 124.919 248.377C123.894 249.154 122.753 249.73 121.501 250.113C119.69 250.667 117.962 250.945 116.317 250.945C114.179 250.945 112.163 250.601 110.275 249.913C108.386 249.226 106.741 248.244 105.351 246.958C103.955 245.677 102.858 244.141 102.055 242.345C101.252 240.548 100.853 238.541 100.853 236.323C100.853 234.105 101.252 232.098 102.055 230.301C102.858 228.505 103.955 226.969 105.351 225.688C106.741 224.407 108.386 223.426 110.275 222.738C112.163 222.051 114.179 221.707 116.317 221.707C117.957 221.707 119.685 221.984 121.501 222.539C122.753 222.921 123.894 223.498 124.919 224.274C125.666 224.84 125.738 225.949 125.09 226.625L121.684 230.207V230.224Z" fill="#D9D9D9"/>
<path d="M134.218 206.93C135.071 206.93 135.763 207.623 135.763 208.477V226.193H135.88C136.068 225.66 136.395 225.123 136.855 224.59C137.314 224.058 137.868 223.576 138.516 223.154C139.164 222.733 139.928 222.389 140.809 222.123C141.684 221.857 142.642 221.724 143.673 221.724C145.849 221.724 147.605 222.056 148.94 222.727C150.275 223.398 151.316 224.324 152.064 225.505C152.806 226.692 153.315 228.084 153.581 229.692C153.847 231.294 153.98 233.035 153.98 234.909V248.727C153.98 249.581 153.288 250.274 152.435 250.274H146.929C146.076 250.274 145.384 249.581 145.384 248.727V236.628C145.384 235.824 145.356 234.992 145.301 234.133C145.246 233.273 145.074 232.481 144.786 231.754C144.498 231.028 144.06 230.435 143.468 229.974C142.875 229.514 142.028 229.287 140.92 229.287C139.812 229.287 138.915 229.486 138.228 229.891C137.541 230.296 137.015 230.828 136.655 231.494C136.29 232.164 136.051 232.919 135.941 233.756C135.824 234.599 135.769 235.475 135.769 236.395V248.727C135.769 249.581 135.077 250.274 134.224 250.274H128.718C127.865 250.274 127.173 249.581 127.173 248.727V208.477C127.173 207.623 127.865 206.93 128.718 206.93H134.224H134.218Z" fill="#D9D9D9"/>
<path d="M178.3 207.019L177.935 213.634C177.924 213.834 177.724 213.967 177.536 213.906C177.181 213.784 176.849 213.684 176.533 213.612C176.113 213.517 175.636 213.468 175.104 213.468C173.731 213.468 172.701 213.761 172.014 214.355C171.327 214.948 170.984 216.162 170.984 217.998V222.106C170.984 222.273 171.122 222.411 171.288 222.411H177.037C177.204 222.411 177.342 222.55 177.342 222.716V228.987C177.342 229.154 177.204 229.292 177.037 229.292H171.288C171.122 229.292 170.984 229.431 170.984 229.597V249.974C170.984 250.141 170.845 250.279 170.679 250.279H162.698C162.532 250.279 162.393 250.141 162.393 249.974V229.597C162.393 229.431 162.255 229.292 162.089 229.292H157.026C156.86 229.292 156.722 229.154 156.722 228.987V222.716C156.722 222.55 156.86 222.411 157.026 222.411H162.089C162.255 222.411 162.393 222.273 162.393 222.106V217.482C162.393 215.952 162.526 214.51 162.792 213.152C163.058 211.793 163.573 210.601 164.337 209.57C165.102 208.538 166.198 207.729 167.627 207.135C169.062 206.542 170.939 206.248 173.266 206.248C174.141 206.248 175.005 206.287 175.841 206.365C176.594 206.431 177.331 206.548 178.051 206.708C178.195 206.742 178.3 206.875 178.289 207.025L178.3 207.019ZM189.006 222.411H181.025C180.859 222.411 180.721 222.55 180.721 222.716V249.974C180.721 250.141 180.859 250.279 181.025 250.279H189.006C189.173 250.279 189.311 250.141 189.311 249.974V222.716C189.311 222.55 189.173 222.411 189.006 222.411ZM188.94 210.551C187.766 209.126 186.259 208.499 184.426 208.677C183.512 208.766 182.637 209.132 181.928 209.719C180.51 210.895 179.89 212.397 180.067 214.233C180.156 215.148 180.516 216.024 181.103 216.728C182.277 218.147 183.778 218.774 185.606 218.596C186.52 218.508 187.395 218.147 188.104 217.565C189.527 216.39 190.153 214.881 189.976 213.046C189.887 212.137 189.527 211.261 188.946 210.551H188.94ZM205.949 222.411C205.949 222.411 205.927 222.4 205.927 222.389V215.641C205.927 214.82 205.262 214.15 204.437 214.15H197.353C197.353 214.15 197.331 214.161 197.331 214.172V222.389C197.331 222.389 197.32 222.411 197.309 222.411H191.853C191.853 222.411 191.831 222.422 191.831 222.433V229.276C191.831 229.276 191.842 229.298 191.853 229.298H197.309C197.309 229.298 197.331 229.309 197.331 229.32V242.544C197.331 244.075 197.591 245.372 198.106 246.442C198.622 247.512 199.336 248.383 200.255 249.048C201.169 249.719 202.238 250.207 203.462 250.512C204.686 250.817 206.021 250.972 207.472 250.972C208.464 250.972 209.477 250.917 210.508 250.8C211.532 250.684 212.524 250.457 213.471 250.118C213.476 250.118 213.482 250.107 213.482 250.102V242.993C213.482 242.993 213.465 242.966 213.454 242.977C213.072 243.304 212.518 243.515 211.792 243.609C211.05 243.703 210.447 243.753 209.987 243.753C209.073 243.753 208.336 243.631 207.783 243.382C207.229 243.132 206.819 242.777 206.553 242.322C206.287 241.862 206.115 241.319 206.038 240.687C205.96 240.055 205.922 239.362 205.922 238.596V229.331C205.922 229.331 205.933 229.309 205.944 229.309H213.465C213.465 229.309 213.487 229.298 213.487 229.287V222.445C213.487 222.445 213.476 222.422 213.465 222.422H205.944L205.949 222.411ZM241.275 225.505C240.533 224.319 239.491 223.393 238.151 222.727C236.816 222.056 235.06 221.724 232.884 221.724C231.853 221.724 230.895 221.857 230.02 222.123C229.14 222.389 228.359 222.733 227.672 223.154C226.985 223.576 226.392 224.052 225.894 224.59C225.395 225.128 225.013 225.66 224.747 226.193H224.631V222.428C224.631 222.428 224.62 222.406 224.609 222.406H216.401C216.401 222.406 216.378 222.417 216.378 222.428V250.251C216.378 250.251 216.39 250.274 216.401 250.274H224.952C224.952 250.274 224.974 250.263 224.974 250.251V236.395C224.974 235.48 225.03 234.599 225.146 233.756C225.262 232.913 225.501 232.159 225.861 231.494C226.221 230.823 226.747 230.29 227.434 229.891C228.12 229.492 229.018 229.287 230.125 229.287C231.233 229.287 232.081 229.514 232.673 229.974C233.266 230.435 233.703 231.028 233.991 231.754C234.279 232.481 234.451 233.273 234.506 234.133C234.562 234.992 234.59 235.824 234.59 236.628V250.251C234.59 250.251 234.601 250.274 234.612 250.274H243.163C243.163 250.274 243.186 250.263 243.186 250.251V234.909C243.186 233.035 243.053 231.299 242.787 229.692C242.521 228.089 242.011 226.692 241.269 225.505H241.275ZM273.598 230.324C274.208 232.12 274.512 234.127 274.512 236.345V239.018C274.512 239.018 274.501 239.04 274.49 239.04H254.606C254.606 239.04 254.584 239.051 254.584 239.062C254.933 240.692 255.675 241.995 256.811 242.966C257.957 243.942 259.369 244.429 261.048 244.429C262.46 244.429 263.651 244.113 264.626 243.481C265.595 242.855 266.437 242.045 267.162 241.058C267.168 241.047 267.179 241.047 267.19 241.058L273.172 245.45C273.172 245.45 273.183 245.472 273.172 245.477C271.798 247.23 270.065 248.577 267.971 249.531C265.872 250.484 263.695 250.967 261.441 250.967C259.187 250.967 257.287 250.623 255.398 249.935C253.51 249.248 251.865 248.261 250.474 246.98C249.079 245.699 247.982 244.163 247.179 242.367C246.376 240.57 245.977 238.563 245.977 236.345C245.977 234.127 246.376 232.12 247.179 230.324C247.982 228.527 249.079 226.991 250.474 225.71C251.865 224.43 253.51 223.448 255.398 222.761C257.287 222.073 259.303 221.729 261.441 221.729C263.424 221.729 265.229 222.073 266.852 222.761C268.475 223.448 269.849 224.435 270.973 225.71C272.097 226.991 272.967 228.527 273.576 230.324H273.598ZM265.922 233.168C265.955 231.726 265.479 230.49 264.487 229.464C263.496 228.433 262.216 227.917 260.649 227.917C259.696 227.917 258.854 228.072 258.129 228.377C257.403 228.682 256.783 229.076 256.268 229.553C255.753 230.03 255.354 230.584 255.066 231.216C254.783 231.837 254.623 232.492 254.579 233.174C254.579 233.185 254.59 233.196 254.601 233.196H265.9C265.9 233.196 265.922 233.185 265.922 233.174V233.168ZM296.146 235.081C295.061 234.471 293.892 234.022 292.651 233.734C291.411 233.445 290.247 233.179 289.156 232.93C288.071 232.68 287.174 232.392 286.465 232.07C285.756 231.749 285.407 231.238 285.407 230.551C285.407 229.714 285.75 229.12 286.437 228.777C287.124 228.433 287.827 228.261 288.558 228.261C290.613 228.261 292.269 229.037 293.526 230.595C293.532 230.606 293.549 230.606 293.554 230.595L298.794 225.405C298.794 225.405 298.799 225.383 298.794 225.378C297.498 224.008 295.919 223.06 294.053 222.528C292.18 221.995 290.331 221.724 288.497 221.724C287.046 221.724 285.612 221.907 284.199 222.267C282.787 222.633 281.535 223.193 280.45 223.958C279.364 224.723 278.483 225.699 277.813 226.88C277.143 228.067 276.811 229.481 276.811 231.122C276.811 232.88 277.165 234.283 277.869 235.336C278.572 236.39 279.469 237.199 280.56 237.77C281.646 238.341 282.815 238.774 284.055 239.062C285.296 239.35 286.459 239.617 287.55 239.866C288.636 240.116 289.533 240.421 290.242 240.781C290.945 241.147 291.3 241.69 291.3 242.417C291.3 243.182 290.901 243.709 290.098 243.991C289.295 244.28 288.398 244.424 287.406 244.424C286.11 244.424 284.975 244.163 284 243.648C283.031 243.132 282.15 242.389 281.352 241.402C281.347 241.391 281.33 241.391 281.325 241.402L276.141 247.163C276.141 247.163 276.135 247.185 276.141 247.191C277.514 248.599 279.187 249.581 281.17 250.129C283.152 250.684 285.119 250.961 287.068 250.961C288.558 250.961 290.065 250.817 291.593 250.529C293.122 250.24 294.496 249.747 295.714 249.037C296.938 248.333 297.941 247.396 298.722 246.226C299.503 245.062 299.896 243.581 299.896 241.785C299.896 239.988 299.541 238.624 298.838 237.571C298.129 236.523 297.237 235.691 296.146 235.075V235.081ZM322.942 237.576C322.233 236.528 321.341 235.696 320.25 235.081C319.165 234.471 317.996 234.022 316.755 233.734C315.515 233.445 314.352 233.179 313.261 232.93C312.175 232.68 311.278 232.392 310.569 232.07C309.86 231.749 309.511 231.238 309.511 230.551C309.511 229.714 309.854 229.12 310.541 228.777C311.228 228.433 311.931 228.261 312.662 228.261C314.717 228.261 316.373 229.037 317.631 230.595C317.636 230.606 317.653 230.606 317.658 230.595L322.898 225.405C322.898 225.405 322.903 225.383 322.898 225.378C321.602 224.008 320.023 223.06 318.157 222.528C316.285 221.995 314.435 221.724 312.601 221.724C311.15 221.724 309.716 221.907 308.303 222.267C306.891 222.633 305.639 223.193 304.554 223.958C303.468 224.723 302.588 225.699 301.917 226.88C301.247 228.067 300.915 229.481 300.915 231.122C300.915 232.88 301.269 234.283 301.973 235.336C302.676 236.39 303.573 237.199 304.665 237.77C305.75 238.341 306.919 238.774 308.159 239.062C309.4 239.35 310.563 239.617 311.654 239.866C312.74 240.116 313.637 240.421 314.346 240.781C315.05 241.147 315.404 241.69 315.404 242.417C315.404 243.182 315.005 243.709 314.202 243.991C313.399 244.28 312.502 244.424 311.51 244.424C310.214 244.424 309.079 244.163 308.104 243.648C307.135 243.132 306.254 242.389 305.457 241.402C305.451 241.391 305.434 241.391 305.429 241.402L300.245 247.163C300.245 247.163 300.239 247.185 300.245 247.191C301.618 248.599 303.291 249.581 305.274 250.129C307.257 250.684 309.223 250.961 311.173 250.961C312.662 250.961 314.169 250.817 315.698 250.529C317.226 250.24 318.6 249.747 319.818 249.037C321.042 248.333 322.045 247.396 322.826 246.226C323.607 245.062 324 243.581 324 241.785C324 239.988 323.646 238.624 322.942 237.571V237.576Z" fill="url(#paint0_linear_27_579)"/>
</g>
<defs>
<linearGradient id="paint0_linear_27_579" x1="156.727" y1="228.599" x2="324" y2="228.599" gradientUnits="userSpaceOnUse">
<stop stop-color="#AB3B3E"/>
<stop offset="1" stop-color="#E26465"/>
</linearGradient>
<clipPath id="clip0_27_579">
<rect width="324" height="251" fill="white"/>
</clipPath>
</defs>
</svg>
